<?xml version="1.0" encoding="UTF-8"?>
<svg version="1.1" xmlns="http://www.w3.org/2000/svg" width="512" height="512">
<path d="M0 0 C1.18586763 -0.00623996 2.37173527 -0.01247993 3.59353828 -0.01890898 C6.8541121 -0.03201757 10.11408076 -0.02741684 13.37463856 -0.0149641 C16.90300881 -0.00586155 20.43130129 -0.01990896 23.95965576 -0.03088379 C30.85942096 -0.04861844 37.75901156 -0.0448517 44.65878344 -0.03323323 C50.26913917 -0.02417919 55.87944617 -0.0229834 61.48980713 -0.02732849 C62.28999555 -0.02794142 63.09018397 -0.02855436 63.91462052 -0.02918586 C65.54047061 -0.03046483 67.1663207 -0.03176169 68.79217076 -0.03307623 C84.01787617 -0.04446722 99.24348505 -0.03139162 114.46917462 -0.00987476 C127.51774676 0.00799489 140.56617653 0.00489036 153.61474609 -0.0135498 C168.78803537 -0.03498274 183.96124017 -0.04336872 199.13454247 -0.03110075 C200.7542254 -0.02982663 202.37390835 -0.02856914 203.99359131 -0.02732849 C205.18879023 -0.02640284 205.18879023 -0.02640284 206.40813458 -0.02545848 C212.00813339 -0.02201285 217.60807837 -0.02781693 223.20806885 -0.0372467 C230.03780368 -0.04849505 236.86735476 -0.04536733 243.69706869 -0.02412373 C247.17801869 -0.01365121 250.65866293 -0.00942589 254.13961029 -0.02272034 C257.92117588 -0.03368582 261.70188696 -0.01989808 265.48339844 0 C266.57222887 -0.00892289 267.6610593 -0.01784577 268.7828846 -0.02703905 C280.20934189 0.08920883 289.44313971 3.58586925 297.74169922 11.50793457 C307.81659607 22.0616384 309.33884726 33.34294381 309.24963379 47.4107666 C309.25424952 49.00459931 309.26060694 50.59842775 309.26854277 52.19224739 C309.28516696 56.54728253 309.27702137 60.90196489 309.26459789 65.25700092 C309.25552129 69.96328882 309.26953005 74.66951746 309.28051758 79.37579346 C309.29827957 88.58563745 309.29447315 97.79535085 309.28286701 107.00519991 C309.27382384 114.49198253 309.27261252 121.97872862 309.27696228 129.46551514 C309.27757521 130.53213823 309.27818814 131.59876133 309.27881965 132.69770634 C309.28009859 134.86470843 309.28139544 137.03171052 309.28271002 139.19871259 C309.29410902 159.50618044 309.28101276 179.813576 309.25950855 200.121032 C309.2416382 217.53584301 309.2447425 234.95054736 309.26318359 252.36535645 C309.2846023 272.60146019 309.29301045 292.83750062 309.28073454 313.07361412 C309.27946038 315.23252741 309.27820289 317.3914407 309.27696228 319.550354 C309.27603663 321.1435848 309.27603663 321.1435848 309.27509227 322.76900208 C309.27164238 330.24451542 309.27745995 337.7199885 309.28688049 345.19549561 C309.29811295 354.30891624 309.29503418 363.4221991 309.27375752 372.535604 C309.26326392 377.1830818 309.25909641 381.83033012 309.27235413 386.47780609 C309.28431893 390.73654299 309.27764851 394.99483881 309.25644392 399.25353599 C309.25199511 400.78972749 309.25420521 402.32595667 309.26394707 403.86212373 C309.34180098 417.16456159 307.15096436 427.65149643 297.74169922 437.50793457 C288.3532171 446.47047421 278.21541251 449.12020708 265.48339844 449.01586914 C264.2975308 449.0221091 263.11166317 449.02834907 261.88986015 449.03477812 C258.62928634 449.04788671 255.36931768 449.04328598 252.10875988 449.03083324 C248.58038963 449.02173069 245.05209715 449.0357781 241.52374268 449.04675293 C234.62397748 449.06448758 227.72438688 449.06072084 220.824615 449.04910237 C215.21425926 449.04004833 209.60395227 449.03885254 203.99359131 449.04319763 C202.79330868 449.04411703 202.79330868 449.04411703 201.56877792 449.045055 C199.94292782 449.04633398 198.31707774 449.04763083 196.69122767 449.04894537 C181.46552227 449.06033636 166.23991339 449.04726076 151.01422381 449.0257439 C137.96565168 449.00787425 124.91722191 449.01097878 111.86865234 449.02941895 C96.69536307 449.05085188 81.52215827 449.05923786 66.34885597 449.04696989 C64.72917304 449.04569577 63.10949009 449.04443828 61.48980713 449.04319763 C60.29460821 449.04227198 60.29460821 449.04227198 59.07526386 449.04132763 C53.47526504 449.03788199 47.87532006 449.04368607 42.27532959 449.05311584 C35.44559475 449.06436419 28.61604368 449.06123647 21.78632975 449.03999287 C18.30537974 449.02952035 14.8247355 449.02529503 11.34378815 449.03858948 C7.56222255 449.04955496 3.78151148 449.03576722 0 449.01586914 C-1.08883043 449.02479203 -2.17766087 449.03371491 -3.29948616 449.04290819 C-14.72594345 448.92666031 -23.95974127 445.42999989 -32.25830078 437.50793457 C-42.33319763 426.95423074 -43.85544882 415.67292533 -43.76623535 401.60510254 C-43.77085109 400.01126983 -43.7772085 398.41744139 -43.78514433 396.82362175 C-43.80176853 392.46858661 -43.79362294 388.11390425 -43.78119946 383.75886822 C-43.77212286 379.05258032 -43.78613161 374.34635169 -43.79711914 369.64007568 C-43.81488113 360.43023169 -43.81107471 351.22051829 -43.79946858 342.01066923 C-43.7904254 334.52388661 -43.78921409 327.03714052 -43.79356384 319.550354 C-43.79417677 318.48373091 -43.79478971 317.41710781 -43.79542121 316.3181628 C-43.79670015 314.15116071 -43.797997 311.98415862 -43.79931158 309.81715655 C-43.81071058 289.5096887 -43.79761433 269.20229314 -43.77611011 248.89483714 C-43.75823976 231.48002613 -43.76134406 214.06532178 -43.77978516 196.6505127 C-43.80120386 176.41440895 -43.80961201 156.17836852 -43.7973361 135.94225502 C-43.79606194 133.78334174 -43.79480446 131.62442844 -43.79356384 129.46551514 C-43.79263819 127.87228434 -43.79263819 127.87228434 -43.79169384 126.24686706 C-43.78824394 118.77135372 -43.79406151 111.29588064 -43.80348206 103.82037354 C-43.81471451 94.7069529 -43.81163574 85.59367004 -43.79035908 76.48026514 C-43.77986549 71.83278734 -43.77569797 67.18553902 -43.78895569 62.53806305 C-43.80092049 58.27932615 -43.79425007 54.02103033 -43.77304548 49.76233315 C-43.76859667 48.22614165 -43.77080677 46.68991247 -43.78054863 45.15374541 C-43.85840254 31.85130755 -41.66756592 21.36437271 -32.25830078 11.50793457 C-22.86981866 2.54539493 -12.73201407 -0.10433794 0 0 Z M-20.25830078 23.50793457 C-35.63753456 41.385318 -27.25830078 82.79863327 -27.25830078 96.50793457 C78.34169922 96.50793457 183.94169922 96.50793457 292.74169922 96.50793457 C297.01169921 62.85736757 297.01169921 62.85736757 285.74169922 23.50793457 C276.80352188 16.53918613 268.53609375 16.35785973 257.63430786 16.3742218 C256.52395074 16.37195625 255.41359361 16.36969069 254.2695893 16.36735648 C250.55341351 16.36103239 246.83727433 16.36184482 243.12109375 16.3626709 C240.45489364 16.35967844 237.78869638 16.35630394 235.12249756 16.35249329 C228.63466246 16.34419986 222.14683644 16.34143905 215.65899648 16.34088091 C210.38416279 16.34040518 205.1093321 16.33834761 199.83449936 16.33518028 C184.86963812 16.32637773 169.90478405 16.32176035 154.9399202 16.32251076 C153.73070951 16.32257069 153.73070951 16.32257069 152.49707031 16.32263184 C151.6899424 16.32267272 150.88281449 16.3227136 150.05122815 16.32275572 C136.96949135 16.3231622 123.88778332 16.31359096 110.80605485 16.29949347 C97.36429022 16.28512259 83.92253963 16.27822366 70.48076713 16.27908725 C62.93803369 16.27941894 55.39533043 16.27668381 47.85260391 16.26590919 C41.43120122 16.25679489 35.00984239 16.25463662 28.58843602 16.26141862 C25.31440623 16.26467897 22.04047786 16.26366664 18.76645279 16.25606537 C15.21191279 16.24834781 11.65759312 16.25298891 8.10305786 16.26069641 C7.07571034 16.25555285 6.04836281 16.25040928 4.98988354 16.24510986 C-4.30501475 16.28958593 -12.99106141 17.25620463 -20.25830078 23.50793457 Z M-27.25830078 112.50793457 C-27.29955078 161.16230957 -27.34080078 209.81668457 -27.38330078 259.94543457 C-27.40150879 275.31677979 -27.4197168 290.688125 -27.43847656 306.52526855 C-27.4451648 320.28583482 -27.4451648 320.28583482 -27.44918823 334.04640198 C-27.45105397 340.1826887 -27.4583932 346.31893905 -27.4694519 352.45521545 C-27.48218894 359.53323885 -27.48797116 366.61122733 -27.48519068 373.68926227 C-27.48398662 377.30942583 -27.48588654 380.92951135 -27.49673104 384.54966056 C-27.50828194 388.42924952 -27.50428325 392.30873496 -27.49880981 396.18833923 C-27.50463514 397.31351991 -27.51046047 398.43870058 -27.51646233 399.59797764 C-27.48026511 409.13721324 -26.69055402 418.03084832 -20.25830078 425.50793457 C-12.1199423 432.50905518 -2.19552511 432.80662627 8.08959961 432.76190186 C9.20166558 432.76502184 10.31373156 432.76814182 11.4594965 432.77135634 C15.16950411 432.77930565 18.87934677 432.77302457 22.58935547 432.76672363 C25.25585405 432.76943485 27.92234143 432.77292445 30.58883667 432.77734375 C37.0697268 432.78621806 43.55057051 432.78432451 50.03146243 432.77851847 C55.30053 432.77399425 60.5695846 432.77339236 65.83865356 432.7755661 C66.58973391 432.77587257 67.34081425 432.77617903 68.1146546 432.77649479 C69.64065322 432.77713426 71.16665183 432.77778269 72.69265044 432.77843997 C86.98831756 432.78413752 101.283959 432.77759441 115.57962191 432.76683924 C127.83515794 432.75790425 140.09065607 432.75945645 152.34619141 432.76867676 C166.5921246 432.77938956 180.83803531 432.78358825 195.08397198 432.77745223 C196.60422961 432.77681516 198.12448724 432.77618642 199.64474487 432.7755661 C200.39266157 432.77525755 201.14057826 432.774949 201.9111591 432.7746311 C207.17141993 432.77290719 212.43166644 432.7758127 217.69192505 432.78052521 C224.10596447 432.78614527 230.51995496 432.78459397 236.93398881 432.77396372 C240.20397858 432.76872212 243.47387042 432.76770839 246.74386215 432.77326202 C250.29392204 432.77873502 253.84375346 432.77186176 257.39379883 432.76190186 C258.41978211 432.7663633 259.4457654 432.77082474 260.50283909 432.77542138 C270.02993665 432.72365456 278.35317148 431.9352287 285.37060547 424.86730957 C293.02146298 416.386841 292.89010913 407.51017595 292.86195374 396.54910278 C292.86280975 395.33816956 292.86366577 394.12723633 292.86454773 392.87960815 C292.8659137 389.51967175 292.86278193 386.15979369 292.85777195 382.79986432 C292.85340236 379.12050486 292.85486675 375.44114685 292.85558987 371.76178551 C292.85612134 364.62090836 292.85150578 357.4800438 292.84508854 350.33916988 C292.83788737 342.07861039 292.83709372 333.81805844 292.83630371 325.55749512 C292.83105379 303.74930627 292.81709267 281.94112023 292.80419922 260.13293457 C292.78357422 211.41668457 292.76294922 162.70043457 292.74169922 112.50793457 C187.14169922 112.50793457 81.54169922 112.50793457 -27.25830078 112.50793457 Z " fill="#000000" transform="translate(123.25830078125,31.4920654296875)"/>
<path d="M0 0 C10.27183783 7.75729193 18.61015649 17.56743571 20.6875 30.6875 C20.77602349 34.02316772 20.75308487 37.35157844 20.6875 40.6875 C21.34234375 40.66655273 21.9971875 40.64560547 22.671875 40.62402344 C25.67692328 40.54019617 28.68172464 40.48863105 31.6875 40.4375 C32.71746094 40.40398437 33.74742187 40.37046875 34.80859375 40.3359375 C42.64887252 40.23606134 47.97942727 41.43809132 53.9296875 46.65234375 C54.46851563 47.30332031 55.00734375 47.95429688 55.5625 48.625 C56.11679687 49.27339844 56.67109375 49.92179687 57.2421875 50.58984375 C60.89462448 55.8908131 60.98457539 60.66260285 60.97802734 66.89306641 C60.98474457 67.81247009 60.99146179 68.73187378 60.99838257 69.67913818 C61.0173637 72.71583481 61.02128741 75.75231025 61.0234375 78.7890625 C61.02986737 80.90790903 61.03659588 83.02675468 61.04360962 85.14559937 C61.05558413 89.5891119 61.05929046 94.03254669 61.05810547 98.47607422 C61.05790274 104.14844987 61.08515677 109.82032192 61.11964989 115.49257851 C61.14197918 119.871432 61.14594109 124.2501657 61.14488602 128.62907028 C61.14723475 130.71889347 61.15601691 132.80872032 61.17155075 134.89848709 C61.27360648 150.05194319 60.6804788 162.1720826 49.6875 173.6875 C40.55863739 182.40219871 30.56616563 185.30471141 18.1484375 185.20507812 C16.50467133 185.21559204 16.50467133 185.21559204 14.82769775 185.22631836 C11.23903354 185.24378878 7.65117093 185.23231396 4.0625 185.21875 C1.54866384 185.22144804 -0.9651713 185.22533306 -3.47900391 185.23034668 C-8.73413122 185.23622692 -13.98905378 185.22811335 -19.24414062 185.20898438 C-25.29222792 185.18722098 -31.33977557 185.19427447 -37.38784981 185.21629 C-43.24143688 185.23673267 -49.09482131 185.23443757 -54.94842529 185.22276306 C-57.42340166 185.22010673 -59.89839194 185.22332676 -62.37335205 185.23268127 C-65.84041108 185.24291176 -69.3064536 185.22725377 -72.7734375 185.20507812 C-73.78259216 185.21317505 -74.79174683 185.22127197 -75.83148193 185.22961426 C-87.02970706 185.0978289 -96.19984 181.43209981 -104.3125 173.6875 C-116.07863835 161.36217884 -115.91615935 147.98452496 -115.84375 131.89453125 C-115.84644878 129.77707237 -115.8503344 127.6596147 -115.85534668 125.54216003 C-115.86121968 121.12181709 -115.85274722 116.7017991 -115.83398438 112.28149414 C-115.81115432 106.62911897 -115.82435787 100.97750196 -115.84827423 95.3251543 C-115.86275584 90.95926744 -115.85811605 86.59355922 -115.84776306 82.22766685 C-115.8451045 80.14375403 -115.84833473 78.05982473 -115.85768127 75.97593117 C-115.86789045 73.06139991 -115.85228643 70.14808379 -115.83007812 67.23364258 C-115.83817505 66.38201538 -115.84627197 65.53038818 -115.85461426 64.6529541 C-115.75875884 57.82997376 -113.87050702 52.60657759 -109.34765625 47.4453125 C-108.69667969 46.90648437 -108.04570312 46.36765625 -107.375 45.8125 C-106.40240234 44.98105469 -106.40240234 44.98105469 -105.41015625 44.1328125 C-101.30719502 41.30581873 -97.74156738 40.4368959 -92.79296875 40.4921875 C-91.2605957 40.50185547 -91.2605957 40.50185547 -89.69726562 40.51171875 C-88.64216797 40.52847656 -87.58707031 40.54523438 -86.5 40.5625 C-85.42556641 40.57152344 -84.35113281 40.58054688 -83.24414062 40.58984375 C-80.60003146 40.61334694 -77.95638128 40.64620425 -75.3125 40.6875 C-75.33062744 40.03523438 -75.34875488 39.38296875 -75.36743164 38.7109375 C-75.58854869 25.00420761 -70.21623966 14.87104133 -61 4.9375 C-44.70456176 -10.48496833 -18.58433045 -12.3339951 0 0 Z M-52.3125 20.6875 C-57.01665202 27.61500746 -58.3125 32.23250923 -58.3125 40.6875 C-37.8525 40.6875 -17.3925 40.6875 3.6875 40.6875 C3.6875 31.12162428 1.26818675 24.45147469 -5.3125 17.4453125 C-13.08457231 10.61438957 -20.62550506 9.30952287 -30.703125 9.4140625 C-39.52736177 10.08256529 -46.50200844 14.07645183 -52.3125 20.6875 Z M-97.3125 59.6875 C-104.86816824 78.57667061 -99.3125 100.34324064 -99.3125 120.6875 C-51.7925 120.6875 -4.2725 120.6875 44.6875 120.6875 C47.81411383 88.59530463 47.81411383 88.59530463 41.6875 58.6875 C37.57241875 56.09240371 33.09023493 56.45294137 28.375 56.5625 C27.26415039 56.57603516 27.26415039 56.57603516 26.13085938 56.58984375 C24.31626533 56.61325787 22.50183929 56.64912385 20.6875 56.6875 C20.67291748 57.51999268 20.65833496 58.35248535 20.64331055 59.21020508 C20.5822137 62.30239653 20.50805444 65.39392082 20.42504883 68.4855957 C20.37548681 70.4804063 20.34098867 72.47557257 20.30664062 74.47070312 C20.2534668 76.35112305 20.2534668 76.35112305 20.19921875 78.26953125 C20.17303467 79.42686768 20.14685059 80.5842041 20.11987305 81.77661133 C19.6875 84.6875 19.6875 84.6875 18.27661133 86.5637207 C16.29094068 87.96793671 15.10493724 88.08997088 12.6875 88.0625 C12.006875 88.07023437 11.32625 88.07796875 10.625 88.0859375 C8.6875 87.6875 8.6875 87.6875 5.6875 84.6875 C5.3575 75.4475 5.0275 66.2075 4.6875 56.6875 C-16.4325 56.6875 -37.5525 56.6875 -59.3125 56.6875 C-59.6425 65.9275 -59.9725 75.1675 -60.3125 84.6875 C-63.3125 87.6875 -63.3125 87.6875 -65.25 88.0859375 C-65.930625 88.07820313 -66.61125 88.07046875 -67.3125 88.0625 C-67.993125 88.07023437 -68.67375 88.07796875 -69.375 88.0859375 C-71.98014313 87.55020242 -72.71214432 86.81567675 -74.3125 84.6875 C-74.74487305 81.77661133 -74.74487305 81.77661133 -74.82421875 78.26953125 C-74.87739258 76.38911133 -74.87739258 76.38911133 -74.93164062 74.47070312 C-74.95419922 73.16037109 -74.97675781 71.85003906 -75 70.5 C-75.03317666 69.16467987 -75.06766666 67.82939168 -75.10351562 66.49414062 C-75.18612057 63.22534496 -75.25523229 59.95682188 -75.3125 56.6875 C-77.85482342 56.60597656 -80.39449202 56.54676284 -82.9375 56.5 C-84.00677734 56.46229492 -84.00677734 56.46229492 -85.09765625 56.42382812 C-89.88201291 56.35798835 -93.25248998 56.87719276 -97.3125 59.6875 Z " fill="#000000" transform="translate(283.3125,183.3125)"/>
<path d="M0 0 C1.02994835 -0.00935994 1.02994835 -0.00935994 2.08070374 -0.01890898 C4.38097496 -0.03486111 6.68018972 -0.02222711 8.98046875 -0.00964355 C10.62972634 -0.01506373 12.27897909 -0.0221858 13.92822266 -0.03088379 C18.40757091 -0.04913268 22.886551 -0.04204323 27.36590576 -0.02936745 C32.05123901 -0.01924786 36.73654052 -0.02863023 41.421875 -0.03491211 C49.29042222 -0.04219156 57.15881932 -0.03259303 65.02734375 -0.0135498 C74.12742646 0.00821953 83.22715071 0.00116837 92.32722473 -0.02085543 C100.13710094 -0.03900097 107.94686917 -0.0415719 115.75675964 -0.03110075 C120.42269772 -0.02486116 125.08846725 -0.02404295 129.75439453 -0.0372467 C134.14085692 -0.04879232 138.52685669 -0.0408033 142.91326904 -0.01766968 C144.52414176 -0.01237565 146.13505333 -0.01390823 147.74591064 -0.02272034 C149.94311376 -0.03363283 152.13882949 -0.01996683 154.3359375 0 C156.18094849 0.00226215 156.18094849 0.00226215 158.06323242 0.00457001 C161.74951554 0.60221956 162.92356627 1.58295559 165.16796875 4.50793457 C165.69921875 6.50793457 165.69921875 6.50793457 165.66796875 8.50793457 C165.6834375 9.49793457 165.6834375 9.49793457 165.69921875 10.50793457 C164.91138424 13.47389977 163.55732468 14.60472758 161.16796875 16.50793457 C158.06323242 17.01129913 158.06323242 17.01129913 154.3359375 17.01586914 C153.64930527 17.0221091 152.96267303 17.02834907 152.25523376 17.03477812 C149.95496254 17.05073025 147.65574778 17.03809625 145.35546875 17.0255127 C143.70621116 17.03093287 142.05695841 17.03805494 140.40771484 17.04675293 C135.92836659 17.06500182 131.4493865 17.05791237 126.97003174 17.04523659 C122.28469849 17.035117 117.59939698 17.04449937 112.9140625 17.05078125 C105.04551528 17.0580607 97.17711818 17.04846217 89.30859375 17.02941895 C80.20851104 17.00764961 71.10878679 17.01470078 62.00871277 17.03672457 C54.19883656 17.05487011 46.38906833 17.05744104 38.57917786 17.04696989 C33.91323978 17.0407303 29.24747025 17.03991209 24.58154297 17.05311584 C20.19508058 17.06466146 15.80908081 17.05667244 11.42266846 17.03353882 C9.81179574 17.02824479 8.20088417 17.02977737 6.59002686 17.03858948 C4.39282374 17.04950197 2.19710801 17.03583597 0 17.01586914 C-1.84501099 17.01360699 -1.84501099 17.01360699 -3.72729492 17.01129913 C-7.41357804 16.41364958 -8.58762877 15.43291355 -10.83203125 12.50793457 C-11.36328125 10.50793457 -11.36328125 10.50793457 -11.33203125 8.50793457 C-11.3475 7.51793457 -11.3475 7.51793457 -11.36328125 6.50793457 C-9.79278824 0.59549028 -5.4395476 0.00666939 0 0 Z " fill="#000000" transform="translate(178.83203125,383.4920654296875)"/>
<path d="M0 0 C5.82485779 3.51996782 10.54466582 8.98962934 12.5625 15.5 C13.36764105 23.33608208 13.68710392 31.11922577 8.5625 37.5 C3.75801361 42.54521222 -0.59927055 46.10562995 -7.70703125 46.8359375 C-16.22326573 46.92983204 -22.11345494 46.6177288 -28.40234375 40.62890625 C-34.7841668 33.72505269 -35.91792252 28.29832071 -35.7421875 18.9453125 C-35.04689797 11.08319245 -31.38995981 6.95041296 -25.53515625 1.9453125 C-18.47077988 -2.92213491 -7.84396301 -3.47595223 0 0 Z " fill="#000000" transform="translate(227.4375,65.5)"/>
<path d="M0 0 C5.82485779 3.51996782 10.54466582 8.98962934 12.5625 15.5 C13.36764105 23.33608208 13.68710392 31.11922577 8.5625 37.5 C3.75801361 42.54521222 -0.59927055 46.10562995 -7.70703125 46.8359375 C-16.22326573 46.92983204 -22.11345494 46.6177288 -28.40234375 40.62890625 C-34.7841668 33.72505269 -35.91792252 28.29832071 -35.7421875 18.9453125 C-35.04689797 11.08319245 -31.38995981 6.95041296 -25.53515625 1.9453125 C-18.47077988 -2.92213491 -7.84396301 -3.47595223 0 0 Z " fill="#000000" transform="translate(163.4375,65.5)"/>
<path d="M0 0 C1.00853027 -0.00700928 2.01706055 -0.01401855 3.05615234 -0.02124023 C6.39188114 -0.03885406 9.72676248 -0.02718497 13.0625 -0.01367188 C15.37890791 -0.0163658 17.69531472 -0.02024739 20.01171875 -0.02526855 C24.86729698 -0.03116822 29.72258096 -0.02258526 34.578125 -0.00390625 C40.80614646 0.01888316 47.03347845 0.00576265 53.26147461 -0.01819611 C58.04497485 -0.0326412 62.82831127 -0.02805393 67.61181641 -0.01768494 C69.90836671 -0.0150141 72.20493183 -0.01829988 74.50146484 -0.02760315 C77.7097114 -0.03774714 80.91683706 -0.02229671 84.125 0 C85.55271729 -0.01214539 85.55271729 -0.01214539 87.00927734 -0.02453613 C93.43945009 0.05837271 93.43945009 0.05837271 96.65039062 2.42492676 C98.17562415 4.68522053 98.60471773 5.81564333 98.5625 8.51757812 C98.57796875 9.50757813 98.57796875 9.50757813 98.59375 10.51757812 C97.77143622 13.61334764 96.65975504 14.60332765 94.0625 16.51757812 C90.75626211 17.12830568 87.47912473 17.06368931 84.125 17.03515625 C83.11646973 17.04216553 82.10793945 17.0491748 81.06884766 17.05639648 C77.73311886 17.07401031 74.39823752 17.06234122 71.0625 17.04882812 C68.74609209 17.05152205 66.42968528 17.05540364 64.11328125 17.0604248 C59.25770302 17.06632447 54.40241904 17.05774151 49.546875 17.0390625 C43.31885354 17.01627309 37.09152155 17.0293936 30.86352539 17.05335236 C26.08002515 17.06779745 21.29668873 17.06321018 16.51318359 17.05284119 C14.21663329 17.05017035 11.92006817 17.05345613 9.62353516 17.0627594 C6.4152886 17.07290339 3.20816294 17.05745296 0 17.03515625 C-0.95181152 17.04325317 -1.90362305 17.0513501 -2.88427734 17.05969238 C-9.31445009 16.97678354 -9.31445009 16.97678354 -12.52539062 14.61022949 C-14.05062415 12.34993572 -14.47971773 11.21951292 -14.4375 8.51757812 C-14.45296875 7.52757812 -14.45296875 7.52757812 -14.46875 6.51757812 C-12.53367962 -0.76739273 -6.18858895 -0.05264544 0 0 Z " fill="#000000" transform="translate(213.9375,415.482421875)"/>
</svg>
